<?xml version="1.0" encoding="UTF-8"?><svg id="Camada_1" xmlns="http://www.w3.org/2000/svg" viewBox="0 0 512 512"><circle cx="256" cy="256" r="256" fill="#f2e5cd"/><path d="M115.794,420.871c1.647-5.261,11.162-4.819,18.637-15.672,4.096-5.946,5.415-12.141,5.912-16.203,20.37-64.403,40.739-128.806,61.109-193.208,1.932-8.192,7.454-26.374,23.859-40.685,24.838-21.667,59.688-21.431,84.368-11.503,6.592,2.652,42.071,16.923,43.337,40.155,1.851,33.947-72.12,36.143-96.698,97.892-5.447,13.685-8.901,36.126-15.808,81.007-3.432,22.3-4.581,34.736-11.959,52.13-7.834,18.467-17.547,41.366-38.243,48.23-34.739,11.522-78.501-29.406-74.514-42.142Z" fill="#f5d5cd"/><path d="M142.709,457.194c-30.069-17.261-29.989-55.562-29.938-58.32.192-10.509,2.857-18.941,4.977-24.229,20.092-65.349,40.183-130.698,60.275-196.047,3.318-8.081,9.715-21.049,21.661-33.636,37.818-39.845,91.755-34.244,95.611-33.778,10.277,1.24,26.438,3.4,41.561,15.538,5.666,4.548,22.706,18.193,23.075,38.992.309,17.428-11.26,29.961-17.45,36.668-13.227,14.329-22.548,13.518-39.725,25.425-21.118,14.638-31.911,33.1-39.077,45.392-14.584,25.018-18.72,47.884-22.764,70.245-4.362,24.118-2.726,32.001-9.458,60.644-6.065,25.807-10.89,34.282-17.105,41.072-4.205,4.594-17.155,17.165-37.771,19.159-5.189.502-19.436,1.162-33.872-7.125Z" fill="none" stroke="#007396" stroke-miterlimit="10" stroke-width="15"/><circle cx="214.919" cy="87.839" r="15.998" fill="none" stroke="#007396" stroke-miterlimit="10" stroke-width="16"/><circle cx="266.198" cy="69.455" r="16.818" fill="none" stroke="#007396" stroke-miterlimit="10" stroke-width="16"/><path d="M338.658,72.715c-3.226,8.086-12.811,14.909-22.604,11.857-9.618-2.998-14.021-13.833-11.857-22.604,2.654-10.758,14.742-16.597,23.336-14.207,4.666,1.298,7.429,4.778,8.422,6.064,4.044,5.235,5.199,12.634,2.703,18.89Z" fill="none" stroke="#007396" stroke-miterlimit="10" stroke-width="16"/><path d="M370.643,116.204c.631.332,14.359,7.275,27.505-.017,9.889-5.485,16.919-17.621,13.837-22.326-2.817-4.3-11.587,1.413-29.071-.472-17.694-1.908-24.95-9.51-28.145-6.199-4.044,4.192,2.295,21.859,15.875,29.013Z" fill="#f5d5cd"/><path d="M411.72,100.224c-3.999,12.038-15.177,21.157-27.467,21.942-2.165.138-9.728.513-16.692-4.346-10.74-7.494-13.439-22.82-9.882-34.449,3.741-12.233,15.308-23.33,28.739-23.265,8.362.041,14.313,4.393,16.203,5.912,9.885,7.947,13.045,22.325,9.099,34.205Z" fill="none" stroke="#007396" stroke-miterlimit="10" stroke-width="16"/></svg>